<?xml version="1.0" encoding="UTF-8" standalone="no" ?>
<!DOCTYPE svg PUBLIC "-//W3C//DTD SVG 1.1//EN" "http://www.w3.org/Graphics/SVG/1.1/DTD/svg11.dtd">
<svg xmlns="http://www.w3.org/2000/svg" xmlns:xlink="http://www.w3.org/1999/xlink" width="1224" height="172" version="1.1" viewBox="-51 -7 102 14.5">
<g id="workbuster-text">
<path style="stroke: rgb(255,255,255); stroke-width: 0; stroke-dasharray: none; stroke-linecap: butt; stroke-dashoffset: 0; stroke-linejoin: miter; stroke-miterlimit: 4; fill: rgb(153,153,153); fill-rule: nonzero; opacity: 1;" vector-effect="non-scaling-stroke"  transform=" translate(-50.5, -12.82)" d="M 11.84 10.12 L 14.86 10.12 L 11.1 20 L 9.16 20 L 7.32 15.219999999999999 C 6.7 16.88 6.1000000000000005 18.439999999999998 5.5200000000000005 20 L 3.5600000000000005 20 L -0.2199999999999993 10.12 L 2.8200000000000007 10.12 L 4.540000000000001 15.559999999999999 L 6.240000000000001 10.119999999999997 L 8.420000000000002 10.119999999999997 L 10.120000000000001 15.579999999999998 z M 20.227708333333332 12.42 C 19.007708333333333 12.42 17.98770833333333 13.5 17.98770833333333 15.08 C 17.98770833333333 16.64 19.00770833333333 17.72 20.227708333333332 17.72 C 21.46770833333333 17.72 22.48770833333333 16.64 22.48770833333333 15.079999999999998 C 22.48770833333333 13.499999999999998 21.46770833333333 12.419999999999998 20.227708333333332 12.419999999999998 z M 20.227708333333332 9.98 C 23.12770833333333 9.98 25.44770833333333 12.16 25.44770833333333 15.08 C 25.44770833333333 18 23.12770833333333 20.16 20.227708333333332 20.16 C 17.347708333333333 20.16 15.027708333333333 18 15.027708333333333 15.08 C 15.027708333333333 12.16 17.347708333333333 9.98 20.227708333333332 9.98 z M 33.15541666666667 10.26 L 32.75541666666667 12.48 C 32.01541666666667 12.16 31.87541666666667 12.22 31.53541666666667 12.22 C 30.33541666666667 12.22 29.63541666666667 12.860000000000001 29.63541666666667 14.440000000000001 L 29.63541666666667 20 L 26.67541666666667 20 L 26.67541666666667 10.12 L 29.63541666666667 10.12 L 29.63541666666667 11 C 30.01541666666667 10.32 31.055416666666673 9.98 31.71541666666667 9.98 C 32.33541666666667 9.98 32.69541666666667 10 33.15541666666667 10.26 z M 40.103125 20 L 36.903124999999996 15.940000000000001 C 36.823125 16.02 36.683125 16.12 36.56312499999999 16.220000000000002 L 36.56312499999999 20.000000000000004 L 33.583124999999995 20.000000000000004 L 33.583124999999995 5.480000000000004 L 36.56312499999999 5.480000000000004 L 36.56312499999999 12.600000000000005 L 39.40312499999999 10.120000000000005 L 43.82312499999999 10.120000000000005 L 39.04312499999999 14.120000000000005 C 40.50312499999999 15.920000000000005 42.42312499999999 18.260000000000005 43.82312499999999 20.000000000000004 L 40.10312499999999 20.000000000000004 z M 49.91083333333333 9.98 C 52.81083333333333 9.98 54.73083333333333 12.16 54.73083333333333 15.08 C 54.73083333333333 18 52.61083333333333 20.16 49.710833333333326 20.16 C 49.070833333333326 20.16 47.99083333333333 19.8 47.67083333333333 19.34 L 47.67083333333333 20 L 44.710833333333326 20 L 44.710833333333326 5.48 L 47.67083333333333 5.48 L 47.67083333333333 10.82 C 48.01083333333333 10.32 49.290833333333325 9.98 49.91083333333333 9.98 z M 49.51083333333333 17.92 C 50.75083333333333 17.92 51.77083333333333 16.64 51.77083333333333 15.080000000000002 C 51.77083333333333 13.500000000000002 50.750833333333325 12.220000000000002 49.51083333333333 12.220000000000002 C 48.15083333333333 12.220000000000002 47.27083333333333 13.760000000000002 47.27083333333333 15.080000000000002 C 47.27083333333333 16.400000000000002 48.17083333333333 17.92 49.51083333333333 17.92 z M 56.17854166666666 15.76 L 56.17854166666666 10.120000000000001 L 59.13854166666666 10.120000000000001 L 59.13854166666666 15.760000000000002 C 59.13854166666666 17.28 59.55854166666666 17.92 60.698541666666664 17.92 C 61.89854166666667 17.92 62.59854166666666 17.28 62.59854166666666 15.760000000000002 L 62.59854166666666 10.120000000000001 L 65.55854166666666 10.120000000000001 L 65.55854166666666 20 L 62.598541666666655 20 L 62.598541666666655 19.1 C 62.03854166666665 19.8 60.818541666666654 20.16 59.958541666666655 20.16 C 57.17854166666665 20.16 56.17854166666665 18.84 56.17854166666665 15.76 z M 69.80624999999999 13.24 C 69.80624999999999 14.42 74.80624999999999 13.86 74.80624999999999 16.98 C 74.80624999999999 19.02 73.00625 20.16 70.76624999999999 20.16 C 69.34624999999998 20.16 67.92624999999998 19.46 66.80624999999999 18.34 L 68.74624999999999 16.4 C 69.30624999999999 17.08 70.10624999999999 17.599999999999998 70.76624999999999 17.66 C 71.42624999999998 17.720000000000002 71.98624999999998 17.44 72.08624999999998 17.14 C 72.32624999999997 16.38 70.94624999999998 16.34 70.52624999999998 16.22 C 68.94624999999998 15.739999999999998 67.10624999999997 15.079999999999998 67.10624999999997 13.12 C 67.10624999999997 10.78 69.54624999999997 9.979999999999999 70.76624999999997 9.979999999999999 C 72.16624999999998 9.979999999999999 73.58624999999996 10.62 74.72624999999996 11.78 L 72.80624999999996 13.7 C 72.28624999999997 13.02 71.38624999999996 12.479999999999999 70.76624999999996 12.479999999999999 C 70.44624999999996 12.479999999999999 69.80624999999996 12.599999999999998 69.80624999999996 13.239999999999998 z M 79.53395833333333 15.8 C 79.53395833333333 16.52 79.51395833333333 17.72 80.61395833333333 17.72 C 81.15395833333334 17.72 81.49395833333332 17.5 81.87395833333333 17.22 L 81.87395833333333 19.66 C 81.41395833333334 19.92 80.85395833333334 20.16 80.25395833333333 20.16 C 77.71395833333332 20.16 76.57395833333332 19.08 76.57395833333332 15.8 L 76.57395833333332 12.56 L 75.47395833333333 12.56 L 75.47395833333333 10.120000000000001 L 76.57395833333332 10.120000000000001 L 76.57395833333332 7.280000000000001 L 79.53395833333332 7.280000000000001 L 79.53395833333332 10.120000000000001 L 81.87395833333332 10.120000000000001 L 81.87395833333332 12.56 L 79.53395833333332 12.56 L 79.53395833333332 15.8 z M 93.54166666666666 15.08 L 93.54166666666666 15.74 L 86.50166666666665 15.74 C 86.50166666666665 16.9 87.68166666666666 17.72 88.66166666666665 17.72 C 89.62166666666664 17.72 90.50166666666665 17.34 90.96166666666664 16.5 L 92.94166666666665 18.32 C 92.14166666666665 19.4 90.92166666666665 20.16 88.66166666666665 20.16 C 85.42166666666665 20.16 83.44166666666665 18 83.44166666666665 15.08 C 83.44166666666665 12.16 85.36166666666665 9.98 88.48166666666665 9.98 C 91.60166666666666 9.98 93.54166666666666 12.120000000000001 93.54166666666666 15.08 z M 86.56166666666667 13.86 L 90.44166666666666 13.86 C 90.28166666666667 12.92 89.60166666666666 12.42 88.48166666666667 12.42 C 87.40166666666667 12.42 86.74166666666667 13 86.56166666666667 13.86 z M 101.22937499999999 10.26 L 100.82937499999998 12.48 C 100.08937499999999 12.16 99.94937499999999 12.22 99.60937499999999 12.22 C 98.40937499999998 12.22 97.70937499999998 12.860000000000001 97.70937499999998 14.440000000000001 L 97.70937499999998 20 L 94.74937499999999 20 L 94.74937499999999 10.12 L 97.70937499999998 10.12 L 97.70937499999998 11 C 98.08937499999998 10.32 99.12937499999998 9.98 99.78937499999998 9.98 C 100.40937499999998 9.98 100.76937499999998 10 101.22937499999998 10.26 z" stroke-linecap="round" />
</g>
</svg>