<?xml version="1.0" encoding="UTF-8" standalone="no" ?>
<!DOCTYPE svg PUBLIC "-//W3C//DTD SVG 1.1//EN" "http://www.w3.org/Graphics/SVG/1.1/DTD/svg11.dtd">
<svg xmlns="http://www.w3.org/2000/svg" xmlns:xlink="http://www.w3.org/1999/xlink" version="1.1" viewBox="430 480 220 120" xml:space="preserve" style="background-color: transparent;" height="1000px" width="1000px">
<g transform="matrix(1 0 0 1 540 540)"  > 
<path style="stroke: none; stroke-width: 1; stroke-dasharray: none; stroke-linecap: butt; stroke-dashoffset: 0; stroke-linejoin: miter; stroke-miterlimit: 4; fill: rgb(165,165,165); fill-rule: nonzero; opacity: 1;" vector-effect="non-scaling-stroke"  transform=" translate(-180.44, -78.81)" d="M 272.35 9.436 L 246.943 7.038 L 234.10500000000002 5.134 C 230.6715461337494 4.623337408781789 227.18329480955254 5.601531987024082 224.51600000000002 7.823000000000004 L 197.496 30.361 C 193.95600000000002 29.689 190.17100000000002 29.532 187.101 29.51 L 187.079 29.51 C 186.2679927539072 29.50939074432986 185.58480002913066 30.115670577449173 185.489 30.921000000000003 C 185.489 30.989000000000004 184.68200000000002 38.158 184.279 46.627 C 183.74099999999999 57.918000000000006 184.166 65.917 185.533 70.397 C 186.765 74.453 189.521 79.561 192.70299999999997 85.476 C 197.89999999999998 95.154 203.81499999999997 106.132 205.42799999999997 116.595 C 206.43599999999998 123.07 205.60799999999998 129.567 204.21799999999996 135.101 C 202.31399999999996 136.691 200.22999999999996 137.745 198.03499999999997 138.865 C 191.44799999999998 141.464 184.83799999999997 137.52100000000002 181.45499999999998 134.922 C 179.081 133.152 176.325 132.95 173.88299999999998 134.406 C 173.85999999999999 134.429 173.838 134.429 173.79299999999998 134.451 C 169.44699999999997 137.408 162.32299999999998 140.411 156.49699999999999 139.066 C 153.831 138.461 151.74699999999999 136.983 150.314 134.67600000000002 C 149.933 129.276 149.933 123.11500000000001 150.986 117.26700000000002 C 152.375 109.49300000000002 157.37099999999998 101.51700000000002 162.658 93.04800000000003 C 167.45299999999997 85.38600000000002 172.404 77.45500000000003 174.64499999999998 69.45700000000002 C 178.677 54.91700000000002 177.355 36.791000000000025 176.92999999999998 32.154000000000025 C 177.176 31.795000000000023 177.28799999999998 31.324000000000026 177.176 30.899000000000026 C 177.176 30.854000000000024 177.154 30.809000000000026 177.154 30.787000000000027 C 176.95091944960313 30.113510210925533 176.33341275162263 29.650380187440152 175.63 29.644000000000027 C 172.135 29.62200000000003 167.587 29.62200000000003 163.017 30.048000000000027 L 136.4 7.868 C 133.73262112841033 5.645897199556876 130.2439268181605 4.667316626608801 126.81 5.178000000000001 L 113.973 7.083000000000001 L 88.59 9.436 C 84.804 9.794 81.891 12.953 82.003 16.627 L 82.967 51.824 L 88.366 47.321 L 91.883 63.855 C 92.73892764182827 67.88646844711594 95.06271539513773 71.4559062307654 98.40299999999999 73.87 L 103.73499999999999 77.724 C 104.81099999999998 78.50800000000001 106.35599999999998 79.202 107.49899999999998 79.673 L 102.52499999999998 89.912 C 102.31207210141618 90.35051928185999 102.31207210141618 90.86248071814002 102.52499999999998 91.301 C 102.72699999999998 91.749 103.12999999999998 92.062 103.60099999999997 92.174 L 110.09799999999997 93.72000000000001 L 99.88199999999998 109.96300000000001 C 99.54599999999998 110.501 99.36599999999997 111.061 99.34399999999998 111.62100000000001 C 99.27699999999999 114.153 101.94299999999998 114.668 103.24199999999998 114.93700000000001 C 103.46599999999998 114.98200000000001 103.68999999999997 115.02700000000002 103.89199999999998 115.07100000000001 C 105.39299999999999 115.43 106.33399999999997 117.13300000000001 106.55799999999998 118.54400000000001 C 106.87199999999997 120.40400000000001 106.40099999999998 122.42000000000002 105.95299999999997 124.36900000000001 L 103.01799999999997 137.20700000000002 C 102.81699999999998 138.08100000000002 102.39099999999998 139.91700000000003 103.55599999999997 141.329 C 104.18299999999996 142.091 105.03499999999997 142.405 105.63999999999997 142.584 C 108.30599999999997 143.368 111.08399999999997 142.853 113.32399999999997 142.427 L 116.81899999999997 141.777 C 120.89699999999998 141.016 125.19899999999997 141.70999999999998 128.91799999999998 143.749 C 135.123 147.154 142.42799999999997 149.843 150.628 151.702 C 150.73899999999998 151.725 150.874 151.74699999999999 150.986 151.74699999999999 C 151.411 151.74699999999999 151.815 151.58999999999997 152.128 151.277 C 152.509 150.896 152.666 150.313 152.55399999999997 149.77599999999998 C 152.35199999999998 148.94599999999997 151.50099999999998 145.15999999999997 150.85099999999997 139.91799999999998 C 152.28499999999997 140.99299999999997 153.94299999999998 141.75499999999997 155.80299999999997 142.18099999999998 C 160.28299999999996 143.21099999999998 167.81099999999998 142.427 175.58499999999998 137.117 C 176.885 136.355 178.22899999999998 136.46699999999998 179.52899999999997 137.453 C 184.21099999999996 141.06 189.00599999999997 142.898 193.50899999999996 142.898 C 195.50299999999996 142.898 197.42899999999995 142.539 199.26699999999997 141.79999999999998 C 199.30161850097204 141.77897059234155 199.3394551828593 141.76376835408328 199.37899999999996 141.755 C 200.52983032175123 141.1882421693799 201.66523926119078 140.59069361740467 202.78399999999996 139.963 C 200.81299999999996 145.87699999999998 198.57199999999997 149.91 198.39299999999997 150.24599999999998 C 198.08390985391694 150.78159343464108 198.1191792351662 151.44896850427992 198.48299999999998 151.94899999999998 C 198.79599999999996 152.374 199.26699999999997 152.62099999999998 199.78199999999998 152.62099999999998 C 199.87199999999999 152.62099999999998 199.98399999999998 152.62099999999998 200.07299999999998 152.599 C 209.528 150.82899999999998 218.243 147.916 225.29999999999998 144.152 C 229.176 142.09099999999998 233.612 141.396 237.77999999999997 142.18099999999998 L 239.19099999999997 142.44899999999998 C 241.43099999999998 142.87499999999997 244.20999999999998 143.39 246.87599999999998 142.606 C 247.45799999999997 142.427 248.33199999999997 142.113 248.95899999999997 141.352 C 250.12399999999997 139.94 249.69899999999998 138.103 249.49699999999999 137.229 L 246.56199999999998 124.39200000000001 C 246.11399999999998 122.44200000000001 245.666 120.42600000000002 245.957 118.56700000000001 C 246.204 117.155 247.12199999999999 115.45200000000001 248.623 115.09400000000001 C 248.825 115.049 249.04899999999998 115.004 249.273 114.959 C 250.54999999999998 114.71300000000001 253.216 114.175 253.171 111.644 C 253.149 111.084 252.97 110.524 252.634 109.986 L 242.41699999999997 93.74300000000001 L 248.914 92.197 C 249.384 92.08500000000001 249.78799999999998 91.771 249.98999999999998 91.32300000000001 C 250.1916806310495 90.88196278452513 250.1916806310495 90.37503721547489 249.98999999999998 89.93400000000001 L 245.039 79.74000000000001 C 246.29299999999998 80.07600000000001 247.839 80.412 248.892 80.412 C 251.78199999999998 80.412 254.672 79.53800000000001 257.137 77.74600000000001 L 262.469 73.89300000000001 C 265.8092846048622 71.4789062307654 268.1330723581717 67.90946844711596 268.989 63.878000000000014 L 272.506 47.344000000000015 L 277.90599999999995 51.847000000000016 L 278.86899999999997 16.650000000000013 C 279.02599999999995 12.953000000000014 276.13599999999997 9.794000000000013 272.349 9.436000000000012 z M 105.64 75.147 L 100.307 71.29400000000001 C 97.60781988446183 69.34602096429393 95.73084056955305 66.46263849535144 95.042 63.206 L 91.166 45.01400000000001 L 119.57499999999999 21.26500000000001 C 120.24699999999999 20.705000000000013 120.33699999999999 19.69700000000001 119.77699999999999 19.025000000000013 C 119.21293934682537 18.35311233636939 118.21216281075137 18.262863738027 117.53699999999999 18.82300000000001 L 85.99 45.148 L 85.20599999999999 16.538000000000004 C 85.16099999999999 14.544000000000004 86.77399999999999 12.818000000000003 88.90299999999999 12.618000000000004 L 114.82399999999998 10.175000000000004 C 115.00399999999999 10.153000000000004 115.15999999999998 10.108000000000004 115.29399999999998 10.041000000000004 L 115.31699999999998 10.063000000000004 L 127.28099999999998 8.293000000000005 C 129.82325266274273 7.931691443328232 132.4003311082897 8.655247402272277 134.38299999999998 10.286999999999999 L 158.849 30.563000000000002 C 154.749 31.257 150.89499999999998 32.445 148.117 34.483000000000004 C 144.891 36.858000000000004 142.73999999999998 38.853 141.777 39.816 L 127.01199999999999 38.359 C 126.32666266890402 38.287377289734685 125.67394834351758 38.668161034426966 125.39899999999999 39.300000000000004 C 125.12887063504735 39.93603401061901 125.29053218357579 40.673339038398886 125.80199999999999 41.138000000000005 C 127.04207486727339 42.224739037979646 128.2450938895543 43.35304881130273 129.40899999999996 44.52099999999998 L 118.431 46.873000000000005 C 117.89035751316504 46.99113715536606 117.44949888615119 47.38090916036543 117.26599999999999 47.903000000000006 C 117.08274900961597 48.430687277184575 117.18483209952949 49.01558557383723 117.53599999999999 49.45 C 118.95466172370782 51.167549432415484 120.52939052413761 52.74997779968412 122.23999999999997 54.17699999999999 L 110.29999999999998 74.02700000000002 L 110.23199999999999 74.16100000000002 L 109.02199999999999 76.64800000000001 C 107.88 76.26800000000001 106.469 75.75200000000001 105.63999999999999 75.14800000000001 z M 130.486 140.926 C 127.31614093473576 139.17845086418737 123.7556591991435 138.26132581036234 120.136 138.26 C 118.836 138.26 117.559 138.37199999999999 116.282 138.618 L 112.78699999999999 139.268 C 110.79299999999999 139.648 108.50699999999999 140.075 106.603 139.492 C 106.17699999999999 139.358 106.088 139.268 106.065 139.268 C 106.02 139.223 105.931 138.999 106.17699999999999 137.901 L 109.112 125.06400000000001 C 109.60499999999999 122.91300000000001 110.16499999999999 120.494 109.74 118.006 C 109.314 115.497 107.589 112.652 104.654 111.957 C 104.40283828823065 111.8917289768361 104.14850705213107 111.83932739669486 103.892 111.8 C 103.49153320085357 111.72416215817881 103.0953217924279 111.62736240380355 102.705 111.50999999999999 L 114.019 93.51899999999999 C 114.2853673563811 93.07978807469199 114.33478819095085 92.54242870179564 114.153 92.062 C 113.95484763831281 91.58509972351034 113.53703934419563 91.2344391909477 113.033 91.122 L 106.289 89.531 L 113.055 75.61800000000001 L 125.691 54.625000000000014 C 126.11423772831434 53.93035926562315 125.93969707438852 53.027771864180494 125.288 52.54100000000001 C 124.04376689490749 51.58715456163329 122.86850543067206 50.54656195440294 121.771 49.42700000000001 L 132.883 47.030000000000015 C 133.443 46.91800000000001 133.89100000000002 46.49200000000002 134.07000000000002 45.95500000000001 C 134.25000000000003 45.39500000000001 134.09300000000002 44.81200000000001 133.71200000000002 44.38600000000001 C 132.95244016762163 43.57773009013248 132.17559407218903 42.78588052933743 131.38199999999995 42.01099999999997 L 142.203 43.08700000000001 C 142.696 43.13200000000001 143.189 42.95200000000001 143.525 42.59400000000001 C 143.547 42.571000000000005 145.833 40.129000000000005 149.977 37.104000000000006 C 155.399 33.13900000000001 166.287 32.848000000000006 173.748 32.848000000000006 L 173.79299999999998 32.848000000000006 C 174.21899999999997 37.84400000000001 175.33899999999997 55.14000000000001 171.575 68.62800000000001 C 169.469 76.17800000000001 164.63 83.90800000000002 159.97 91.39000000000001 C 154.75 99.72500000000002 149.35 108.35000000000002 147.85 116.73000000000002 C 146.751 122.77900000000002 146.751 129.14100000000002 147.132 134.72000000000003 C 147.065 135.01100000000002 147.08700000000002 135.32500000000002 147.199 135.63900000000004 C 147.5224068645054 139.79890849902966 148.09106232883246 143.9361023939281 148.90200000000004 148.02900000000005 C 142.002 146.21300000000005 135.79600000000002 143.83900000000006 130.48600000000002 140.92600000000004 z M 246.293 89.50799999999998 L 239.55 91.1 C 239.05800000000002 91.21199999999999 238.632 91.57 238.43 92.041 C 238.22683913743882 92.5180842903941 238.2775862851983 93.0654016766004 238.565 93.497 L 249.879 111.487 C 249.54299999999998 111.6 249.005 111.71199999999999 248.691 111.779 C 248.423 111.824 248.17600000000002 111.89099999999999 247.93 111.93599999999999 C 244.995 112.63 243.27 115.476 242.844 117.985 C 242.441 120.472 242.97799999999998 122.892 243.471 125.042 L 246.406 137.88 C 246.65300000000002 138.978 246.56300000000002 139.202 246.518 139.24699999999999 C 246.518 139.24699999999999 246.428 139.35899999999998 245.98 139.47099999999998 C 244.054 140.05299999999997 241.79 139.60499999999996 239.797 139.24699999999999 L 238.385 138.97699999999998 C 233.50099999999998 138.05899999999997 228.326 138.86599999999999 223.79999999999998 141.26299999999998 C 217.81799999999998 144.444 210.582 147.021 202.67299999999997 148.74599999999998 C 203.90499999999997 146.10199999999998 205.67499999999998 141.89 207.01999999999998 136.82699999999997 C 207.39999999999998 136.42399999999998 207.53499999999997 135.86399999999998 207.39999999999998 135.34799999999996 C 208.81199999999998 129.56799999999996 209.61799999999997 122.82399999999996 208.56499999999997 116.08099999999996 C 206.86299999999997 105.05799999999996 200.56699999999998 93.34099999999997 195.50399999999996 83.93099999999995 C 192.41199999999995 78.17299999999996 189.74599999999995 73.19899999999996 188.58099999999996 69.43499999999996 C 185.91499999999996 60.74199999999996 187.90899999999996 38.561999999999955 188.49099999999996 32.69199999999996 C 193.30799999999996 32.80399999999996 199.44699999999995 33.296999999999954 202.87499999999994 35.55999999999996 C 206.43699999999995 37.911999999999956 209.52899999999994 40.039999999999964 209.57399999999996 40.06299999999996 C 209.75299999999996 40.19799999999996 209.97699999999995 40.286999999999956 210.17899999999995 40.30999999999996 C 213.76299999999995 40.98199999999996 217.43799999999993 40.82499999999996 220.90999999999994 39.83999999999996 L 220.99999999999994 42.03499999999996 C 221.02503231648342 42.87824589693888 221.702754103061 43.55596768351648 222.54599999999994 43.58099999999996 C 225.77199999999993 43.670999999999964 228.99799999999993 43.98399999999996 232.17999999999995 44.54399999999996 C 231.97511989574357 47.317318587519054 231.87038507982032 50.09712736428399 231.86599999999996 52.87799999999998 C 231.86599999999996 53.460999999999956 231.86599999999996 54.311999999999955 232.33599999999996 55.140999999999956 C 232.85199999999995 56.036999999999956 233.70299999999995 56.48499999999996 234.26299999999995 56.77699999999996 L 243.42599999999996 61.66099999999996 C 240.8864986876969 62.761164355412234 238.49947895232359 64.18423413287923 236.32399999999993 65.89499999999997 C 235.74199999999996 66.34299999999995 235.56299999999996 67.14999999999995 235.87599999999995 67.82199999999996 L 239.43799999999996 75.46199999999996 L 246.29399999999995 89.50899999999996 z M 274.948 45.14799999999998 L 243.42499999999998 18.80099999999998 C 242.7501010263129 18.24062300836832 241.74935303660712 18.3304222699446 241.18499999999997 19.00199999999998 C 240.62499999999997 19.67399999999998 240.71499999999997 20.68199999999998 241.38699999999997 21.241999999999983 L 269.79499999999996 44.99199999999998 L 265.919 63.18299999999998 C 265.2271008094547 66.43837051551687 263.3507826971163 69.3207372567502 260.654 71.27099999999997 L 255.322 75.12499999999997 C 251.648 77.76799999999997 246.742 77.83499999999997 243.022 75.43799999999997 L 242.39499999999998 74.13899999999997 L 239.39299999999997 67.68699999999997 C 241.96899999999997 65.84899999999998 244.88199999999998 64.39299999999997 247.86099999999996 63.49699999999997 C 248.48899999999995 63.31699999999997 248.91399999999996 62.77999999999997 248.98099999999997 62.129999999999974 C 249.04799999999997 61.479999999999976 248.71299999999997 60.875999999999976 248.15299999999996 60.561999999999976 L 235.82999999999996 53.997999999999976 C 235.65099999999995 53.90799999999997 235.24799999999996 53.683999999999976 235.17999999999995 53.59399999999997 C 235.13599999999994 53.48199999999997 235.13599999999994 53.07899999999997 235.13599999999994 52.89999999999997 C 235.13599999999994 49.73999999999997 235.26999999999992 46.559999999999974 235.53899999999993 43.39999999999997 C 235.61112695404597 42.58960644935348 235.06023257871277 41.85536821378802 234.26199999999994 41.69799999999997 C 230.93782324090515 41.029695130116366 227.56726008819973 40.61748481794755 224.1799999999999 40.464999999999954 L 224.06799999999996 37.64299999999997 C 224.04350669182926 37.12815264071158 223.7778182866544 36.65495306831509 223.35099999999994 36.36599999999997 C 222.92599999999993 36.07399999999997 222.38799999999995 36.02899999999997 221.89499999999995 36.208999999999975 C 218.4587998689376 37.50452890396601 214.74099474278339 37.86782222225113 211.11899999999994 37.26199999999997 C 210.26699999999994 36.678999999999974 207.62399999999994 34.86399999999997 204.66599999999994 32.91499999999997 C 203.65799999999993 32.242999999999974 202.47099999999995 31.72799999999997 201.21599999999995 31.30199999999997 L 226.55599999999995 10.28699999999997 C 228.52463833821244 8.645704285510963 231.0991269011814 7.920526973099594 233.63499999999996 8.29299999999997 L 245.53099999999995 10.04099999999997 C 245.53099999999995 10.01799999999997 245.55399999999995 10.01799999999997 245.55399999999995 9.99599999999997 C 245.71099999999996 10.08599999999997 245.91199999999995 10.12999999999997 246.09199999999996 10.15299999999997 L 272.013 12.59499999999997 C 274.142 12.795999999999971 275.777 14.52099999999997 275.71 16.514999999999972 L 274.948 45.14799999999997 z" stroke-linecap="round" />
</g>
<g transform="matrix(1 0 0 1 539.24 539.99)"  >
<path style="stroke: none; stroke-width: 1; stroke-dasharray: none; stroke-linecap: butt; stroke-dashoffset: 0; stroke-linejoin: miter; stroke-miterlimit: 4; fill: rgb(138,138,138); fill-rule: nonzero; opacity: 1;" vector-effect="non-scaling-stroke"  transform=" translate(-179.67, -78.8)" d="M 163.958 78.8 C 163.958 72.50399999999999 158.828 67.395 152.554 67.395 C 146.258 67.395 141.15 72.52499999999999 141.15 78.79899999999999 C 141.15 85.095 146.28 90.20299999999999 152.554 90.20299999999999 C 158.85 90.225 163.958 85.09499999999998 163.958 78.79899999999999 z M 143.368 78.8 C 143.368 73.73599999999999 147.468 69.613 152.554 69.613 C 157.617 69.613 161.74 73.713 161.74 78.799 C 161.74 83.86200000000001 157.64000000000001 87.98500000000001 152.554 87.98500000000001 C 147.491 87.98500000000001 143.368 83.86200000000001 143.368 78.799 z M 206.795 67.395 C 200.499 67.395 195.391 72.52499999999999 195.391 78.79899999999999 C 195.391 85.095 200.521 90.20299999999999 206.795 90.20299999999999 C 213.069 90.20299999999999 218.19799999999998 85.073 218.19799999999998 78.79899999999999 C 218.19799999999998 72.50399999999999 213.08999999999997 67.395 206.795 67.395 z M 206.795 87.985 C 201.731 87.985 197.60899999999998 83.885 197.60899999999998 78.799 C 197.60899999999998 73.736 201.70899999999997 69.613 206.795 69.613 C 211.85799999999998 69.613 215.98 73.713 215.98 78.799 C 215.958 83.86200000000001 211.858 87.98500000000001 206.795 87.98500000000001 z" stroke-linecap="round" />
</g>
<g transform="matrix(1 0 0 1 539.35 539.99)"  >
<path style="stroke: none; stroke-width: 1; stroke-dasharray: none; stroke-linecap: butt; stroke-dashoffset: 0; stroke-linejoin: miter; stroke-miterlimit: 4; fill: rgb(255,255,255); fill-rule: nonzero; opacity: 1;" vector-effect="non-scaling-stroke"  transform=" translate(-179.79, -78.8)" d="M 158.603 78.8 C 158.603 75.46 155.893 72.75 152.554 72.75 C 149.215 72.75 146.504 75.46 146.504 78.8 C 146.504 82.137 149.21599999999998 84.848 152.554 84.848 C 155.89200000000002 84.848 158.604 82.138 158.604 78.79899999999999 z M 207.019 72.75 C 203.6781346087029 72.75110387102752 200.97010387102753 75.45913460870288 200.969 78.8 C 200.97175843466925 82.1398557802775 203.67914349024622 84.84634583253028 207.019 84.848 C 210.35908457079574 84.84634471701366 213.06634471701366 82.13908457079575 213.068 78.79899999999999 C 213.09 75.461 210.37900000000002 72.749 207.018 72.749 z" stroke-linecap="round" />
</g>
<g transform="matrix(1 0 0 1 536.9 579.56)"  >
<path style="stroke: none; stroke-width: 1; stroke-dasharray: none; stroke-linecap: butt; stroke-dashoffset: 0; stroke-linejoin: miter; stroke-miterlimit: 4; fill: rgb(255,255,255); fill-rule: nonzero; opacity: 1;" vector-effect="non-scaling-stroke"  transform=" translate(-177.33, -118.38)" d="M 164.383 116.73 C 164.383 123.76400000000001 173.83800000000002 129.455 177.333 129.455 C 181.657 129.455 190.283 123.74200000000002 190.283 116.72900000000001 C 190.283 109.69400000000002 184.48 107.29700000000001 177.333 107.29700000000001 C 170.186 107.29700000000001 164.383 109.69400000000002 164.383 116.72900000000001 z" stroke-linecap="round" />
</g>
</svg>