<?xml version="1.0" standalone="no"?>
<!DOCTYPE svg PUBLIC "-//W3C//DTD SVG 20010904//EN"
 "http://www.w3.org/TR/2001/REC-SVG-20010904/DTD/svg10.dtd">
<svg version="1.0" xmlns="http://www.w3.org/2000/svg"
 width="512.000000pt" height="512.000000pt" viewBox="0 0 512.000000 512.000000"
 preserveAspectRatio="xMidYMid meet">
<metadata>
Created by potrace 1.14, written by Peter Selinger 2001-2017
</metadata>
<g transform="translate(0.000000,512.000000) scale(0.100000,-0.100000)"
fill="#000000" stroke="none">
<path d="M918 5025 c-53 -30 -48 -100 10 -140 23 -16 31 -26 21 -28 -164 -47
-303 -107 -357 -157 -23 -21 -32 -38 -32 -60 0 -47 35 -73 127 -93 43 -10 93
-23 110 -28 l33 -10 -39 -58 c-37 -53 -45 -60 -108 -81 -198 -65 -353 -200
-443 -385 -72 -148 -75 -167 -75 -558 l0 -348 23 -17 c13 -10 37 -19 54 -20
28 -2 49 16 217 183 262 261 293 283 642 449 83 39 96 43 82 24 -5 -7 -17 -38
-28 -68 -10 -30 -24 -58 -30 -62 -83 -50 -284 -242 -380 -363 -100 -126 -108
-140 -101 -180 9 -45 34 -58 120 -65 l70 -5 -65 -42 c-120 -79 -200 -164 -268
-284 -57 -103 -87 -206 -97 -334 -6 -87 7 -116 58 -129 35 -9 42 -6 123 47
l85 57 -29 -54 c-50 -91 -74 -188 -77 -311 -1 -61 2 -133 7 -160 5 -28 11 -63
14 -80 11 -81 107 -303 152 -351 30 -32 70 -41 104 -21 28 15 28 15 40 -21 26
-82 87 -184 156 -261 50 -56 100 -66 137 -27 14 16 27 45 31 71 l6 45 70 -137
c38 -76 95 -176 127 -223 49 -70 65 -87 94 -94 48 -12 78 10 98 71 l16 46 47
-84 c81 -144 179 -262 312 -376 70 -60 101 -71 143 -49 36 19 42 33 42 103 l0
55 47 -59 c69 -86 148 -159 233 -215 116 -76 127 -76 244 3 84 56 172 137 233
216 l41 52 4 -65 c4 -71 17 -90 63 -99 40 -8 104 34 206 137 94 95 163 186
226 297 l47 84 16 -49 c26 -76 89 -98 137 -47 46 50 117 165 183 299 l66 132
12 -51 c15 -65 32 -82 82 -82 43 0 58 12 126 100 39 49 98 157 113 207 12 36
13 36 39 22 68 -35 99 -10 177 144 71 141 107 311 101 472 -4 111 -25 198 -70
291 l-33 68 76 -52 c90 -61 139 -69 172 -27 17 22 19 36 14 110 -16 248 -148
471 -363 613 l-63 42 68 5 c78 6 110 21 119 55 9 38 -4 63 -86 170 -94 121
-221 249 -327 330 -73 55 -81 64 -105 127 -14 37 -24 68 -22 68 2 0 37 -15 77
-34 39 -19 115 -54 167 -78 179 -84 254 -144 532 -425 77 -78 131 -124 149
-128 32 -7 83 16 93 41 10 26 5 622 -5 689 -44 269 -242 502 -503 592 -73 25
-80 30 -117 84 l-39 58 37 10 c21 5 67 17 103 26 116 30 144 58 123 122 -15
46 -188 139 -318 172 -27 7 -56 15 -64 17 -10 3 -3 13 22 31 45 32 55 64 34
109 -13 25 -24 34 -52 40 -35 6 -265 -1 -315 -10 -14 -3 -43 -7 -65 -10 -22
-3 -47 -7 -55 -9 -8 -2 -33 -7 -55 -11 -148 -29 -343 -99 -496 -178 l-95 -49
-50 19 c-57 23 -196 63 -239 69 -16 2 -41 7 -55 10 -14 2 -88 6 -165 8 -185 4
-332 -20 -493 -81 l-65 -24 -121 60 c-173 85 -369 151 -516 175 -19 3 -48 8
-65 11 -64 11 -95 14 -235 19 -119 5 -150 3 -172 -10z"/>
</g>
</svg>
